<?xml version="1.0" encoding="utf-8"?>
<!-- Generator: Adobe Illustrator 24.2.1, SVG Export Plug-In . SVG Version: 6.00 Build 0)  -->
<svg version="1.1" id="Camada_1" xmlns="http://www.w3.org/2000/svg" xmlns:xlink="http://www.w3.org/1999/xlink" x="0px" y="0px"
	 viewBox="0 0 512 512" style="enable-background:new 0 0 512 512;" xml:space="preserve">
<style type="text/css">
	.st0{fill:#E8EDFC;}
	.st1{fill:#CAD9FC;}
	.st2{fill:#FFFFFF;}
	.st3{fill:#1C335D;}
</style>
<g id="Page-1">
	<g id="_x30_35---Money-Rates">
		<path id="Rectangle-path" class="st0" d="M25.6,452.3h460.8c9.4,0,17.1,7.6,17.1,17.1v17.1c0,9.4-7.6,17.1-17.1,17.1H25.6
			c-9.4,0-17.1-7.6-17.1-17.1v-17.1C8.5,459.9,16.2,452.3,25.6,452.3z"/>
		<path id="Shape" class="st1" d="M486.4,452.3h-25.6c9.4,0,17.1,7.6,17.1,17.1v17.1c0,9.4-7.6,17.1-17.1,17.1h25.6
			c9.4,0,17.1-7.6,17.1-17.1v-17.1C503.5,459.9,495.8,452.3,486.4,452.3z"/>
		<path id="Shape_1_" class="st0" d="M119.5,452.3H34.1V187.7c0-9.4,7.6-17.1,17.1-17.1h51.2c9.4,0,17.1,7.6,17.1,17.1V452.3z"/>
		<path id="Shape_2_" class="st1" d="M102.4,170.7H76.8c9.4,0,17.1,7.6,17.1,17.1v264.5h25.6V187.7
			C119.5,178.3,111.8,170.7,102.4,170.7z"/>
		<path id="Shape_3_" class="st0" d="M238.9,452.3h-85.3V238.9c0-9.4,7.6-17.1,17.1-17.1h51.2c9.4,0,17.1,7.6,17.1,17.1V452.3z"/>
		<path id="Shape_4_" class="st1" d="M221.9,221.9h-25.6c9.4,0,17.1,7.6,17.1,17.1v213.3h25.6V238.9
			C238.9,229.5,231.3,221.9,221.9,221.9z"/>
		<path id="Shape_5_" class="st0" d="M358.4,452.3h-85.3V290.1c0-9.4,7.6-17.1,17.1-17.1h51.2c9.4,0,17.1,7.6,17.1,17.1V452.3z"/>
		<path id="Shape_6_" class="st1" d="M341.3,273.1h-25.6c9.4,0,17.1,7.6,17.1,17.1v162.1h25.6V290.1
			C358.4,280.7,350.8,273.1,341.3,273.1z"/>
		<path id="Shape_7_" class="st0" d="M477.9,452.3h-85.3V341.3c0-9.4,7.6-17.1,17.1-17.1h51.2c9.4,0,17.1,7.6,17.1,17.1V452.3z"/>
		<path id="Shape_8_" class="st1" d="M460.8,324.3h-25.6c9.4,0,17.1,7.6,17.1,17.1v110.9h25.6V341.3
			C477.9,331.9,470.2,324.3,460.8,324.3z"/>
		<path id="Shape_9_" class="st2" d="M25.6,503.5h25.6c-9.4,0-17.1-7.6-17.1-17.1v-17.1c0-9.4,7.6-17.1,17.1-17.1h8.5V187.7
			c0-9.4,7.6-17.1,17.1-17.1H51.2c-9.4,0-17.1,7.6-17.1,17.1v264.5h-8.5c-9.4,0-17.1,7.6-17.1,17.1v17.1
			C8.5,495.8,16.2,503.5,25.6,503.5z"/>
		<path id="Rectangle-path_1_" class="st2" d="M25.6,187.7h17.1V256H25.6V187.7z"/>
		<g>
			<path id="Shape_10_" class="st3" d="M486.4,443.7V341.3c0-14.1-11.5-25.6-25.6-25.6h-51.2c-14.1,0-25.6,11.5-25.6,25.6v102.4
				h-17.1V290.1c0-14.1-11.5-25.6-25.6-25.6h-51.2c-14.1,0-25.6,11.5-25.6,25.6v153.6h-17.1V238.9c0-14.1-11.5-25.6-25.6-25.6h-51.2
				c-14.1,0-25.6,11.5-25.6,25.6v204.8H128v-256c0-14.1-11.5-25.6-25.6-25.6H51.2c-14.1,0-25.6,11.5-25.6,25.6
				c0,4.7,3.8,8.5,8.5,8.5s8.5-3.8,8.5-8.5c0-4.7,3.8-8.5,8.5-8.5h51.2c4.7,0,8.5,3.8,8.5,8.5v256H42.7V256c0-4.7-3.8-8.5-8.5-8.5
				s-8.5,3.8-8.5,8.5v187.7C11.5,443.7,0,455.2,0,469.3v17.1C0,500.5,11.5,512,25.6,512h460.8c14.1,0,25.6-11.5,25.6-25.6v-17.1
				C512,455.2,500.5,443.7,486.4,443.7z M401.1,341.3c0-4.7,3.8-8.5,8.5-8.5h51.2c4.7,0,8.5,3.8,8.5,8.5v102.4h-68.3V341.3z
				 M281.6,290.1c0-4.7,3.8-8.5,8.5-8.5h51.2c4.7,0,8.5,3.8,8.5,8.5v153.6h-68.3V290.1z M162.1,238.9c0-4.7,3.8-8.5,8.5-8.5h51.2
				c4.7,0,8.5,3.8,8.5,8.5v204.8h-68.3V238.9z M494.9,486.4c0,4.7-3.8,8.5-8.5,8.5H25.6c-4.7,0-8.5-3.8-8.5-8.5v-17.1
				c0-4.7,3.8-8.5,8.5-8.5h460.8c4.7,0,8.5,3.8,8.5,8.5V486.4z"/>
			<path id="Shape_11_" class="st3" d="M34.3,230.4c-4.7,0-8.6-3.8-8.6-8.5c0-4.7,3.8-8.6,8.5-8.6h0.1c4.7,0,8.5,3.8,8.5,8.5
				C42.8,226.6,39,230.4,34.3,230.4z"/>
			<path id="Shape_12_" class="st3" d="M76.8,102.4c-4.7,0-8.5,3.8-8.5,8.5v8.5H51.2c-4.7,0-8.5-3.8-8.5-8.5c0-4.7-3.8-8.5-8.5-8.5
				s-8.5,3.8-8.5,8.5c0,14.1,11.5,25.6,25.6,25.6h17.1c0,4.7,3.8,8.5,8.5,8.5c4.7,0,8.5-3.8,8.5-8.5h17.1
				c14.1,0,25.6-11.5,25.6-25.6V93.9c0-14.1-11.5-25.6-25.6-25.6H51.2c-4.7,0-8.5-3.8-8.5-8.5V42.7c0-4.7,3.8-8.5,8.5-8.5h17.1v8.5
				c0,4.7,3.8,8.5,8.5,8.5c4.7,0,8.5-3.8,8.5-8.5v-8.5h17.1c4.7,0,8.5,3.8,8.5,8.5s3.8,8.5,8.5,8.5c4.7,0,8.5-3.8,8.5-8.5
				c0-14.1-11.5-25.6-25.6-25.6H85.3V8.5c0-4.7-3.8-8.5-8.5-8.5c-4.7,0-8.5,3.8-8.5,8.5v8.5H51.2c-14.1,0-25.6,11.5-25.6,25.6v17.1
				c0,14.1,11.5,25.6,25.6,25.6h51.2c4.7,0,8.5,3.8,8.5,8.5v17.1c0,4.7-3.8,8.5-8.5,8.5H85.3v-8.5C85.3,106.2,81.5,102.4,76.8,102.4
				z"/>
			<path id="Shape_13_" class="st3" d="M196.3,153.6c-4.7,0-8.5,3.8-8.5,8.5v8.5h-17.1c-4.7,0-8.5-3.8-8.5-8.5
				c0-4.7-3.8-8.5-8.5-8.5s-8.5,3.8-8.5,8.5c0,14.1,11.5,25.6,25.6,25.6h17.1c0,4.7,3.8,8.5,8.5,8.5s8.5-3.8,8.5-8.5h17.1
				c14.1,0,25.6-11.5,25.6-25.6v-17.1c0-14.1-11.5-25.6-25.6-25.6h-51.2c-4.7,0-8.5-3.8-8.5-8.5V93.9c0-4.7,3.8-8.5,8.5-8.5h17.1
				v8.5c0,4.7,3.8,8.5,8.5,8.5s8.5-3.8,8.5-8.5v-8.5h17.1c4.7,0,8.5,3.8,8.5,8.5c0,4.7,3.8,8.5,8.5,8.5c4.7,0,8.5-3.8,8.5-8.5
				c0-14.1-11.5-25.6-25.6-25.6h-17.1v-8.5c0-4.7-3.8-8.5-8.5-8.5s-8.5,3.8-8.5,8.5v8.5h-17.1c-14.1,0-25.6,11.5-25.6,25.6v17.1
				c0,14.1,11.5,25.6,25.6,25.6h51.2c4.7,0,8.5,3.8,8.5,8.5v17.1c0,4.7-3.8,8.5-8.5,8.5h-17.1v-8.5
				C204.8,157.4,201,153.6,196.3,153.6z"/>
			<path id="Shape_14_" class="st3" d="M315.7,204.8c-4.7,0-8.5,3.8-8.5,8.5v8.5h-17.1c-4.7,0-8.5-3.8-8.5-8.5s-3.8-8.5-8.5-8.5
				s-8.5,3.8-8.5,8.5c0,14.1,11.5,25.6,25.6,25.6h17.1c0,4.7,3.8,8.5,8.5,8.5c4.7,0,8.5-3.8,8.5-8.5h17.1
				c14.1,0,25.6-11.5,25.6-25.6v-17.1c0-14.1-11.5-25.6-25.6-25.6h-51.2c-4.7,0-8.5-3.8-8.5-8.5v-17.1c0-4.7,3.8-8.5,8.5-8.5h17.1
				v8.5c0,4.7,3.8,8.5,8.5,8.5c4.7,0,8.5-3.8,8.5-8.5v-8.5h17.1c4.7,0,8.5,3.8,8.5,8.5c0,4.7,3.8,8.5,8.5,8.5s8.5-3.8,8.5-8.5
				c0-14.1-11.5-25.6-25.6-25.6h-17.1v-8.5c0-4.7-3.8-8.5-8.5-8.5c-4.7,0-8.5,3.8-8.5,8.5v8.5h-17.1c-14.1,0-25.6,11.5-25.6,25.6
				v17.1c0,14.1,11.5,25.6,25.6,25.6h51.2c4.7,0,8.5,3.8,8.5,8.5v17.1c0,4.7-3.8,8.5-8.5,8.5h-17.1v-8.5
				C324.3,208.6,320.4,204.8,315.7,204.8z"/>
			<path id="Shape_15_" class="st3" d="M435.2,256c-4.7,0-8.5,3.8-8.5,8.5v8.5h-17.1c-4.7,0-8.5-3.8-8.5-8.5s-3.8-8.5-8.5-8.5
				s-8.5,3.8-8.5,8.5c0,14.1,11.5,25.6,25.6,25.6h17.1c0,4.7,3.8,8.5,8.5,8.5s8.5-3.8,8.5-8.5h17.1c14.1,0,25.6-11.5,25.6-25.6
				v-17.1c0-14.1-11.5-25.6-25.6-25.6h-51.2c-4.7,0-8.5-3.8-8.5-8.5v-17.1c0-4.7,3.8-8.5,8.5-8.5h17.1v8.5c0,4.7,3.8,8.5,8.5,8.5
				s8.5-3.8,8.5-8.5v-8.5h17.1c4.7,0,8.5,3.8,8.5,8.5s3.8,8.5,8.5,8.5s8.5-3.8,8.5-8.5c0-14.1-11.5-25.6-25.6-25.6h-17.1v-8.5
				c0-4.7-3.8-8.5-8.5-8.5s-8.5,3.8-8.5,8.5v8.5h-17.1c-14.1,0-25.6,11.5-25.6,25.6v17.1c0,14.1,11.5,25.6,25.6,25.6h51.2
				c4.7,0,8.5,3.8,8.5,8.5v17.1c0,4.7-3.8,8.5-8.5,8.5h-17.1v-8.5C443.7,259.8,439.9,256,435.2,256z"/>
		</g>
	</g>
</g>
</svg>
