<?xml version="1.0" encoding="utf-8"?>
<!-- Generator: Adobe Illustrator 24.2.1, SVG Export Plug-In . SVG Version: 6.00 Build 0)  -->
<svg version="1.1" id="Layer_1" xmlns="http://www.w3.org/2000/svg" xmlns:xlink="http://www.w3.org/1999/xlink" x="0px" y="0px"
	 viewBox="0 0 512 512" style="enable-background:new 0 0 512 512;" xml:space="preserve">
<style type="text/css">
	.st0{fill:#D1E7FF;}
	.st1{fill:#E8F3FF;}
	.st2{fill:#B9DCFF;}
	.st3{fill:#1C335D;}
</style>
<path class="st0" d="M503.5,156.4c0,11.2-9.1,20.3-20.3,20.3h-64c-10.8,0-21-4.9-27.7-13.3c-6.8-8.5-17.1-13.3-27.7-13.3H148.3
	c-10.8,0-21,4.9-27.7,13.3c-6.8,8.5-17.1,13.3-27.7,13.3h-64c-11.2,0-20.3-9.1-20.3-20.3c0-11.2,9.1-20.3,20.3-20.3h42.7
	c10.8,0,21-4.9,27.7-13.3c6.8-8.5,17.1-13.3,27.7-13.3h258.1c10.8,0,21,4.9,27.7,13.3c6.8,8.5,17.1,13.3,27.7,13.3h42.7
	C494.4,136.1,503.5,145.2,503.5,156.4z"/>
<path class="st1" d="M386.1,125.4c-30.5,0-95.1,0.1-233.6,0c-10.6,0-20.7,4.7-27.5,13.1c-6.9,8.4-17,13.6-27.9,13.6H54.4
	c-11.1,0-19.9,8.8-20.3,19.4c-0.1,2.9-2.5,5.1-5.3,5.1c-18.1,0-27-22-14.3-34.6c3.7-3.7,8.7-5.9,14.3-5.9h42.7
	c10.8,0,21-4.9,27.7-13.3c3.4-4.2,7.6-7.6,12.4-9.8c13.3-6.4,1.3-2.9,273.5-3.5C397.7,109.4,396.3,125.4,386.1,125.4L386.1,125.4z"
	/>
<g>
	<path class="st0" d="M109.9,305.7c4.7,0,8.5,3.8,8.5,8.5v12.3c0,72.6-109.9,72.7-109.9,0v-12.3c0-4.7,3.8-8.5,8.5-8.5H109.9z"/>
	<path class="st0" d="M494.9,305.7c4.7,0,8.5,3.8,8.5,8.5v12.3c0,72.6-109.9,72.7-109.9,0v-12.3c0-4.7,3.8-8.5,8.5-8.5H494.9z"/>
	<path class="st0" d="M354.1,103.4c0,117.8,1,112.7-2.9,123.6c-1.9,5.4-4.7,10.4-8.3,14.9c-7.2,9-11.2,20.1-11.2,31.6v166.6
		c0,9.4-7.6,17.1-17.1,17.1H212.3c-9.4,0-17.1-7.6-17.1-17.1V280.8c0-40.8-38.4-42.9-38.4-83.8v-48.1c0-21.8,17.7-39.5,39.5-39.5V75
		c0-10.7,8.2-19.4,17.9-20.1c11.7-1,21.5,8.1,21.5,19.6c0.1-9.9,7.5-18.1,17.1-19.4c12.4-1.6,22.4,8.3,22.4,20
		c0-11.9,10.5-21.1,22.2-19.6c10,1.3,17.2,10,17.2,20.1v27.2c0-11.9,10.5-21.1,22.2-19.6C346.8,84.6,354.1,93.4,354.1,103.4z"/>
</g>
<path class="st1" d="M252.8,74.2v67c0,4.5-3.4,8.5-8,8.8c-5,0.3-9.1-3.6-9.1-8.5c0,0,0-67.7,0-68.1
	C236.5,62.6,252.8,63.4,252.8,74.2z"/>
<path class="st2" d="M292.3,74.7v66.5c0,4.5-3.4,8.5-8,8.8c-5,0.3-9.1-3.6-9.1-8.5c0,0,0-67.1,0-67.6
	C275.9,63.1,292.3,63.8,292.3,74.7z"/>
<path class="st1" d="M213.3,74.5v94.4c0,4.5-3.4,8.5-8,8.8c-5,0.3-9.1-3.6-9.1-8.5c0,0,0-95,0-95.5C197,62.9,213.3,63.6,213.3,74.5
	L213.3,74.5z"/>
<path class="st1" d="M173.9,144.7v51.7c0,4.5-3.4,8.5-8,8.8c-5,0.3-9.1-3.6-9.1-8.5c0,0,0-52.4,0-52.8
	C157.5,133.1,173.9,133.8,173.9,144.7z"/>
<path class="st2" d="M331.7,102.4v45.1c0,4.5-3.4,8.5-8,8.8c-5,0.3-9.1-3.6-9.1-8.5c0,0,0-45.8,0-46.2
	C315.4,90.8,331.7,91.6,331.7,102.4z"/>
<path class="st1" d="M214.9,440.3c0,12.5-18.8,13.5-19.6,0.9c-0.1-1.3,0-140.9,0-137.1c0.1-12.5,18.8-13.1,19.5-0.6
	C215,307.5,214.9,440.4,214.9,440.3z"/>
<path class="st1" d="M109.9,305.7c4.7,0,8.5,3.8,8.5,8.5v3.2c0,5.3-4.3,9.6-9.6,9.6H65.1c-15.9,0-28.7,11.2-32,25.2
	c-2,8.5-13.6,9.8-17.9,2.1c-4.2-7.6-6.7-16.9-6.7-27.9v-12.3c0-4.7,3.8-8.5,8.5-8.5H109.9z"/>
<path class="st1" d="M494.9,305.7c4.7,0,8.5,3.8,8.5,8.5v3.2c0,5.3-4.3,9.6-9.6,9.6h-43.7c-15.9,0-28.7,11.2-32,25.2
	c-2,8.5-13.6,9.8-17.9,2.1c-4.2-7.6-6.7-16.9-6.7-27.9v-12.3c0-4.7,3.8-8.5,8.5-8.5H494.9z"/>
<path class="st2" d="M371.2,118c0,11.7,0,18.9,0,23.4c0,4.7-3.8,8.6-8.5,8.6c-2.2,0-4.8,0.1-8.3,0c-0.5-2-0.2-0.5-0.3-40.5h8.5
	C367.4,109.5,371.2,113.3,371.2,118z"/>
<path class="st3" d="M283.7,75.2c0,1.1,0,65.1,0,66.3c0,4.7-3.8,8.5-8.5,8.5c-4.7,0-8.5-3.8-8.5-8.5V75.2c0-3.3-1.4-6.5-3.8-8.8
	c-3.5-3.2-3.7-8.6-0.5-12.1c3.2-3.5,8.6-3.7,12.1-0.5C280.3,59.4,283.7,67.1,283.7,75.2z M244.3,74.6v66.9c0,4.7-3.8,8.5-8.5,8.5
	c-4.7,0-8.5-3.8-8.5-8.5c0-8.5,0-59.2,0-66.9c0-6.5-5.6-11.8-12.3-11.2c-5.7,0.5-10.1,5.6-10.1,11.6v94.2c0,4.7-3.8,8.5-8.5,8.5
	c-4.7,0-8.5-3.8-8.5-8.5V118h-60.8c-8.2,0-15.9,3.7-21.1,10.1c-8.4,10.5-20.9,16.5-34.4,16.5H28.8c-6.5,0-11.7,5.3-11.7,11.7
	c0,6.5,5.3,11.7,11.7,11.7c69.8,0,68.7,1.1,76.7-3.2c4.2-2.2,9.3-0.6,11.5,3.5c2.2,4.2,0.6,9.3-3.5,11.5
	c-11.9,6.4-21.3,5.2-37.1,5.2c53.9,126.6,50.5,117.9,50.6,120.4c0,0.7,0,1.6,0,21c0,35-28.5,63.5-63.5,63.5S0,361.5,0,326.5
	c0-22.5-0.1-21.3,0.2-22.5c0.2-1.2-2.9,6.5,50.4-118.8H28.8C12.9,185.2,0,172.3,0,156.4s12.9-28.8,28.8-28.8h42.7
	c8.2,0,15.9-3.7,21.1-10.1c8.4-10.5,20.9-16.5,34.4-16.5h60.8V75c0-24.7,29.1-38,47.3-21.3C240.9,59.1,244.3,66.7,244.3,74.6
	L244.3,74.6z M48.9,305.7c0-4.7,3.8-8.5,8.5-8.5h48.1l-42-98.7l-46.4,109v19.1c0,25.6,20.8,46.4,46.4,46.4s46.4-20.8,46.4-46.4
	v-12.3H57.4C52.7,314.3,48.9,310.4,48.9,305.7z M323.2,75.2c0-7.5-2.9-14.6-8.2-19.9c-3.3-3.3-8.7-3.4-12.1,0
	c-3.3,3.3-3.4,8.7,0,12.1c2.1,2.1,3.3,4.9,3.3,7.9v72.7c0,4.7,3.8,8.5,8.5,8.5c4.7,0,8.5-3.8,8.5-8.5
	C323.2,123.5,323.2,99.3,323.2,75.2z M165.3,197v-48.1c0-4.7-3.8-8.5-8.5-8.5c-4.7,0-8.5,3.8-8.5,8.5V197
	c0,45.1,38.4,47.1,38.4,83.8v176.4c0,4.7,3.8,8.5,8.5,8.5c4.7,0,8.5-3.8,8.5-8.5V280.8C203.7,236,165.3,233.6,165.3,197z M512,305.6
	c0,0.7,0,1.6,0,21c0,35-28.5,63.5-63.5,63.5s-63.5-28.5-63.5-63.5c0-22.5-0.1-21.3,0.2-22.5c0.2-1.2-2.9,6.5,50.4-118.8
	c-8.6-1.2-33.2,5.5-50.8-16.5c-5.2-6.5-12.6-10.1-22.1-10.1v51.7c0,13.4-4.7,26.6-13.1,37c-6,7.4-9.3,16.7-9.3,26.3v183.6
	c0,4.7-3.8,8.5-8.5,8.5s-8.5-3.8-8.5-8.5V273.6c0-13.4,4.7-26.6,13.1-37c6-7.4,9.3-16.7,9.3-26.3c-1-112.3,2.2-109.1-2.8-114.8
	c-3.1-3.5-2.8-8.9,0.7-12c3.5-3.1,8.9-2.8,12,0.7c4.6,5.2,7.1,11.8,7.1,18.7v38.5c15.2,0,27.3,6.3,35.5,16.5
	c5.2,6.4,12.8,10.1,21.1,10.1h64c6.5,0,11.7-5.3,11.7-11.7c0-6.5-5.3-11.7-11.7-11.7h-42.7c-13.5,0-26-6-34.4-16.5
	c-2.9-3.6-6.7-6.5-11-8.2c-4.4-1.8-6.5-6.7-4.7-11.1c1.8-4.4,6.7-6.5,11.1-4.7c7.1,2.8,13.3,7.4,18,13.4
	c5.2,6.4,12.8,10.1,21.1,10.1h42.7c15.9,0,28.8,12.9,28.8,28.8s-12.9,28.8-28.8,28.8h-21.8C514.4,309.7,511.9,303.1,512,305.6
	L512,305.6z M494.9,326.5v-12.3h-58.4c-4.7,0-8.5-3.8-8.5-8.5s3.8-8.5,8.5-8.5h54l-42-98.7l-46.4,109v19.1
	c0,25.6,20.8,46.4,46.4,46.4S494.9,352.1,494.9,326.5z"/>
</svg>
