<?xml version="1.0" encoding="utf-8"?>
<!-- Generator: Adobe Illustrator 24.2.1, SVG Export Plug-In . SVG Version: 6.00 Build 0)  -->
<svg version="1.1" id="Camada_1" xmlns="http://www.w3.org/2000/svg" xmlns:xlink="http://www.w3.org/1999/xlink" x="0px" y="0px"
	 viewBox="0 0 512 512" style="enable-background:new 0 0 512 512;" xml:space="preserve">
<style type="text/css">
	.st0{fill:#C6D8FB;}
	.st1{fill:#A4C3FD;}
	.st2{fill:#A4C2F7;}
	.st3{fill:#7FACFA;}
	.st4{fill:#E8EDFC;}
	.st5{fill:#CAD9FC;}
	.st6{fill:#FFFFFF;}
	.st7{fill:#1C335D;}
</style>
<g id="Colour">
	<path class="st0" d="M392.5,291.8c0,3.1-0.1,6.2-0.4,9.2l-51.6,43.2c-3.2-11.9-14.1-20.1-26.4-19.9h-87c-3.7,0.1-7.4-1.2-10.3-3.5
		c-10.7-8.8-24.1-13.6-37.9-13.6c-19.2-0.4-38.4,3.2-56.1,10.6c-2.3-8.5-3.4-17.2-3.3-26c0-60.6,44.5-157.4,104.4-180.8v-0.1
		c0.7,0.1,1.5,0.1,2.2,0.1h59.7c1.4,0,2.9-0.2,4.3-0.4l-0.5,1.1C348.8,136,392.5,231.7,392.5,291.8L392.5,291.8z"/>
	<path class="st1" d="M289.6,111.6l0.5-1.1c-1.4,0.3-2.8,0.4-4.3,0.4h-21.5l-0.3,0.7c59.2,24.4,102.9,120.1,102.9,180.1
		c0,3.1-0.1,6.2-0.4,9.2l-35.1,29.3c4.5,3.5,7.7,8.3,9.1,13.8l51.6-43.2c0.3-3.1,0.5-6.1,0.4-9.2C392.5,231.7,348.8,136,289.6,111.6
		L289.6,111.6z"/>
	<path class="st2" d="M307.2,89.6c0,10.2-7.1,18.9-17.1,20.9c-1.4,0.3-2.8,0.4-4.3,0.4h-59.7c-0.7,0-1.5,0-2.2-0.1
		c-11.7-1-20.4-11.4-19.4-23.1c1-11.1,10.4-19.6,21.6-19.5h59.7C297.6,68.3,307.2,77.8,307.2,89.6z"/>
	<path class="st3" d="M285.9,68.3h-25.6c11.8,0,21.3,9.5,21.4,21.3c0,10.2-7.1,18.9-17.1,20.9c-1.4,0.3-2.8,0.4-4.3,0.4h25.6
		c1.4,0,2.9-0.2,4.3-0.4c11.5-2.3,19-13.6,16.7-25.2C304.8,75.4,296,68.3,285.9,68.3z"/>
	<path class="st0" d="M312.8,39.4c-3.3,11-10.8,20.2-20.9,25.7c-5.2,2.2-10.8,3.3-16.5,3.2h-38.9c-5.7,0.1-11.3-1-16.5-3.2
		c-10.1-5.5-17.6-14.7-20.9-25.7c-3-6.6-3.6-14.1-1.5-21.1c2.9-6.9,10.1-10.8,17.5-9.6c8.9,2.1,16.8,7,22.6,14
		c4.4,5.9,11,9.6,18.3,10.2c7.3-0.7,13.9-4.4,18.3-10.2c5.8-7,13.8-11.9,22.6-14c7.4-1.2,14.6,2.8,17.5,9.6
		C316.4,25.3,315.9,32.8,312.8,39.4L312.8,39.4z"/>
	<path class="st1" d="M314.4,18.3c-2.9-6.9-10.1-10.8-17.5-9.6c-4.1,0.7-8.1,2.3-11.5,4.6c1.5,1.4,2.6,3.1,3.4,5
		c2.1,7,1.5,14.5-1.5,21.1c-3.3,11-10.8,20.2-20.9,25.7c-5.2,2.2-10.8,3.3-16.5,3.2h25.6c5.7,0.1,11.3-1,16.5-3.2
		c10.1-5.5,17.6-14.7,20.9-25.7C315.9,32.8,316.4,25.3,314.4,18.3z"/>
	<path class="st4" d="M453.2,316.8L346.7,425.3c-6,6.1-14.1,9.6-22.7,9.9H170.4c-10.7,0-20.9,5.1-27.3,13.7l-35.8,47.8
		c-3.2,4.3-8.3,6.8-13.7,6.8h-68c-9.4,0-17-7.7-17.1-17.1v-45.5c0-3.7,1.2-7.3,3.4-10.2c24.9-33.1,54.3-70.5,64.6-80.8
		c13.2-13.6,28.9-24.5,46.3-32.1c17.8-7.4,36.9-11,56.1-10.6c13.8,0,27.2,4.8,37.9,13.6c2.9,2.3,6.6,3.6,10.3,3.5h87
		c12.3-0.2,23.1,8,26.4,19.9l51.6-43.2l26.2-21.9c10.9-9.1,27.1-7.7,36.3,3.2C463.1,292.4,462.5,307.4,453.2,316.8L453.2,316.8z"/>
	<g>
		<path class="st5" d="M117.5,448.9l-35.8,47.8c-3.2,4.3-8.3,6.8-13.7,6.8h25.6c5.4,0,10.4-2.5,13.7-6.8l35.8-47.8
			c6.5-8.6,16.6-13.6,27.3-13.7h-25.6C134.1,435.2,124,440.3,117.5,448.9z"/>
		<path class="st5" d="M454.6,282.3c-8-9.6-21.8-12-32.6-5.7c2.6,1.5,5,3.4,7,5.7c8.4,10.2,7.9,25.1-1.4,34.6L321.1,425.3
			c-6,6.1-14.1,9.6-22.7,9.9H324c8.6-0.3,16.7-3.8,22.7-9.9l106.5-108.5C462.4,307.4,463,292.5,454.6,282.3z"/>
	</g>
</g>
<g id="Colour_copy">
	<path class="st6" d="M34.1,486.4v-45.5c0-3.7,1.2-7.3,3.4-10.2c24.9-33.1,54.3-70.5,64.6-80.8c13.2-13.6,28.9-24.5,46.3-32.1
		c-17.1-58.9,34.1-180.7,101.1-206.8v-0.1c-11.7-1-20.4-11.4-19.4-23.1c1-11.1,10.4-19.6,21.6-19.5h10.4c-5.7,0.1-11.3-1-16.5-3.2
		c-16.8-7.3-27.3-34.7-22.4-46.8c0.8-1.9,2-3.7,3.6-5.1c-3.5-2.3-7.5-3.9-11.7-4.5c-7.4-1.2-14.6,2.8-17.5,9.6
		c-4.8,12.1,5.7,39.5,22.4,46.8c5.2,2.2,10.8,3.3,16.5,3.2h-10.4c-11.8-0.2-21.5,9.2-21.7,21c-0.2,11.2,8.3,20.6,19.5,21.6v0.1
		c-67,26.1-118.1,147.9-101.1,206.8c-17.4,7.6-33.1,18.5-46.3,32.1c-10.3,10.3-39.7,47.7-64.6,80.8c-2.2,3-3.4,6.5-3.4,10.2v45.5
		c0,9.4,7.7,17,17.1,17.1h25.6C41.8,503.4,34.2,495.8,34.1,486.4z"/>
</g>
<g id="Outline">
	<path class="st6" d="M124.6,222.2l16.1,5.7c-7.6,20.5-11.9,42-12.7,63.8h-17.1C111.7,268,116.3,244.5,124.6,222.2L124.6,222.2z"/>
	<g>
		<path class="st7" d="M123.5,266.4c-4.7,0-8.6-3.8-8.6-8.5c0-4.7,3.8-8.6,8.5-8.6h0.1c4.7,0,8.5,3.8,8.5,8.5
			S128.2,266.4,123.5,266.4z"/>
		<path class="st7" d="M412.9,272.5l-12.2,10.2c-3.6-55.3-39-139-93.9-171.8c11.7-11.4,12-30.1,0.6-41.8c-0.8-0.8-1.5-1.5-2.4-2.2
			c7.2-6.7,12.7-15.2,15.9-24.5c3.8-8.6,4.3-18.3,1.4-27.3c-4.4-10.4-15.4-16.5-26.6-14.8c-10.8,2.3-20.4,8.1-27.5,16.5
			c-9.5,9.8-14.8,9.8-24.3,0c-7.1-8.4-16.8-14.2-27.5-16.5c-11.2-1.8-22.2,4.3-26.6,14.8c-3,9-2.5,18.7,1.4,27.3
			c3.2,9.3,8.7,17.8,15.9,24.5c-12.6,10.4-14.4,29-4,41.6c0.7,0.9,1.5,1.7,2.3,2.5c-6.6,4-12.8,8.5-18.7,13.5
			c-9.7,8.8-18.5,18.6-26.2,29.2c-15.2,21-27.3,44.1-35.8,68.5c-1.6,4.4,0.6,9.2,4.9,10.8c0.1,0,0.3,0.1,0.4,0.1
			c4.4,1.4,9.1-0.9,10.7-5.2c8-22.9,19.3-44.5,33.5-64.1c7-9.6,15-18.6,23.8-26.6c8.4-7.3,17.8-13.3,27.9-17.8h0.3h59.7h0.3
			c54.3,22.2,97.8,111.9,97.8,172.3c0,1.7-0.1,3.4-0.2,5.1l-40.3,33.7c-6.8-9.4-17.8-14.9-29.4-14.8h-86.9c-1.8,0.1-3.5-0.5-4.9-1.6
			c-12.2-10-27.5-15.5-43.3-15.5c-16.9-0.2-33.8,2.4-49.8,7.7c-0.8-4.8-1.1-9.7-1.1-14.6c0-4.7-3.8-8.5-8.5-8.5s-8.5,3.8-8.5,8.5
			c0,7.1,0.7,14.2,2.2,21.1c-15.8,7.9-30.2,18.3-42.6,30.9c-10.8,10.9-40.7,48.9-65.4,81.7C1.8,430,0,435.3,0,440.9v45.5
			C0,500.5,11.5,512,25.6,512c0,0,0,0,0,0h68.1c8.1,0,15.6-3.8,20.5-10.2L150,454c4.8-6.4,12.4-10.2,20.5-10.2h153.8
			c10.8-0.3,21-4.8,28.5-12.5l106.5-108.4c13.3-13.5,13.2-35.2-0.3-48.5C446.4,261.9,426.4,261.1,412.9,272.5L412.9,272.5z
			 M226.1,76.8h59.7c7.1,0,12.8,5.7,12.8,12.8c0,7.1-5.7,12.8-12.8,12.8h-59.7c-7.1,0-12.8-5.7-12.8-12.8
			C213.3,82.5,219.1,76.8,226.1,76.8z M205.6,21.5c1.4-3.2,4.9-5.1,8.3-4.4c7,1.9,13.1,5.9,17.7,11.5c6,7.5,14.9,12.1,24.4,12.8
			c9.6-0.7,18.4-5.3,24.4-12.8c4.5-5.6,10.7-9.6,17.7-11.5c3.5-0.6,6.9,1.2,8.3,4.4c1.3,5,0.7,10.3-1.6,15
			c-2.5,8.8-8.3,16.3-16.3,20.8c-4.1,1.7-8.6,2.5-13,2.4h-39c-4.5,0.1-8.9-0.7-13-2.4c-8-4.5-13.8-12-16.3-20.8
			C204.8,31.9,204.3,26.6,205.6,21.5L205.6,21.5z M447.1,310.9L340.7,419.3c-4.4,4.5-10.3,7.1-16.6,7.4H170.4
			c-13.4,0-26.1,6.3-34.1,17.1l-35.8,47.8c-1.6,2.1-4.1,3.4-6.8,3.4h-68c-4.7,0-8.5-3.8-8.5-8.5v-45.5c0-1.8,0.6-3.6,1.7-5.1
			c23.6-31.3,53.6-69.7,63.8-79.9c24.9-26.6,60-41.2,96.4-40.2c11.8-0.1,23.3,4.1,32.4,11.6c4.5,3.6,10,5.5,15.8,5.5h86.9
			c8.1-0.1,15.4,5.1,17.9,12.8c0.1,0.4,0.2,0.9,0.3,1.3c0.1,0.7,0.2,1.4,0.3,2.1c0.5,9.4-6.8,17.4-16.2,17.9c-0.3,0-0.6,0-0.9,0
			h-93.9c-4.7,0-8.5,3.8-8.5,8.5s3.8,8.5,8.5,8.5h93.9c18.8,0,34.1-15.2,34.1-34c0-0.6,0-1.2,0-1.9v-0.4l74.2-62.1
			c7.3-6.1,18.1-5.2,24.2,2.1c0,0,0,0,0.1,0.1C453.7,294.5,453.3,304.5,447.1,310.9L447.1,310.9z"/>
		<path class="st7" d="M256,247.5c-4.7,0-8.5,3.8-8.5,8.5v6.2c-5.3-3-8.5-8.6-8.5-14.7c0-4.7-3.8-8.5-8.5-8.5s-8.5,3.8-8.5,8.5
			c0.1,15.5,10.6,29,25.6,32.9v1.2c0,4.7,3.8,8.5,8.5,8.5c4.7,0,8.5-3.8,8.5-8.5v-1.2c18.2-4.7,29.2-23.3,24.5-41.5
			c-3.9-15.1-17.5-25.6-33-25.6c-9.4,0-17-7.6-17.1-17c0-6.1,3.2-11.7,8.5-14.8v6.2c0,4.7,3.8,8.5,8.5,8.5c4.7,0,8.5-3.8,8.5-8.5
			v-6.2c5.3,3,8.5,8.6,8.5,14.7c0,4.7,3.8,8.5,8.5,8.5s8.5-3.8,8.5-8.5c-0.1-15.5-10.6-29-25.6-32.9v-1.2c0-4.7-3.8-8.5-8.5-8.5
			c-4.7,0-8.5,3.8-8.5,8.5v1.2c-18.2,4.7-29.2,23.3-24.5,41.5c3.9,15.1,17.5,25.6,33,25.6c9.4,0,17,7.6,17.1,17
			c0,6.1-3.2,11.7-8.5,14.8V256C264.5,251.3,260.7,247.5,256,247.5L256,247.5z"/>
	</g>
</g>
</svg>
