<?xml version="1.0" encoding="utf-8"?>
<!-- Generator: Adobe Illustrator 24.2.1, SVG Export Plug-In . SVG Version: 6.00 Build 0)  -->
<svg version="1.1" id="Camada_1" xmlns="http://www.w3.org/2000/svg" xmlns:xlink="http://www.w3.org/1999/xlink" x="0px" y="0px"
	 viewBox="0 0 512 512" style="enable-background:new 0 0 512 512;" xml:space="preserve">
<style type="text/css">
	.st0{fill:#E8EDFC;}
	.st1{fill:#CAD9FC;}
	.st2{fill:#C6D8FB;}
	.st3{fill:#A4C3FD;}
	.st4{fill:#A4C2F7;}
	.st5{fill:#FFFFFF;}
	.st6{fill:#1C335D;}
</style>
<g id="Colour">
	<path class="st0" d="M503.5,187.7c0,99-80.2,179.2-179.2,179.2s-179.2-80.2-179.2-179.2S225.3,8.5,324.3,8.5
		S503.5,88.8,503.5,187.7z"/>
	<path class="st1" d="M324.3,8.5c-4.3,0-8.5,0.3-12.8,0.6c98.6,6.9,172.9,92.5,166,191.1c-6.3,89.3-77.5,160.2-166.8,166
		c4.5,0.3,9.1,0.6,13.7,0.6c99,0,179.2-80.2,179.2-179.2S423.2,8.5,324.3,8.5z"/>
	<circle class="st2" cx="324.3" cy="187.7" r="145.1"/>
	<path class="st3" d="M324.3,42.7c-4.3,0-8.6,0.3-12.8,0.6c79.8,7,138.7,77.3,131.7,157.1c-6.1,70.1-61.7,125.6-131.7,131.7
		c4.2,0.4,8.5,0.6,12.8,0.6c80.1,0,145.1-64.9,145.1-145.1S404.4,42.7,324.3,42.7z"/>
	<path class="st0" d="M182.4,377.8L61.8,498.4c-6.6,6.7-17.3,6.8-24,0.2c-0.1-0.1-0.1-0.1-0.2-0.2l-24.1-24.1
		c-6.7-6.6-6.8-17.3-0.2-24c0.1-0.1,0.1-0.1,0.2-0.2l120.7-120.7c6.6-6.7,17.3-6.8,24-0.2c0.1,0.1,0.1,0.1,0.2,0.2l24.1,24.1
		c6.7,6.6,6.8,17.3,0.2,24C182.6,377.6,182.5,377.7,182.4,377.8L182.4,377.8z"/>
	<path class="st1" d="M182.4,353.6l-24.1-24.1c-6.6-6.7-17.3-6.8-24-0.2c-0.1,0.1-0.1,0.1-0.2,0.2l-0.7,0.7l23.3,23.3
		c6.7,6.6,6.8,17.3,0.2,24c-0.1,0.1-0.1,0.1-0.2,0.2L36.9,497.7l0.7,0.7c6.6,6.7,17.3,6.8,24,0.2c0.1-0.1,0.1-0.1,0.2-0.2
		l120.7-120.7c6.7-6.6,6.8-17.3,0.2-24C182.6,353.7,182.5,353.7,182.4,353.6L182.4,353.6z"/>
	<path class="st4" d="M210.2,326l-27.7,27.6l-24.1-24.1l27.6-27.7C193.3,310.6,201.4,318.7,210.2,326L210.2,326z"/>
	<path class="st4" d="M186,301.8l-13.3,13.4c3.8,3.8,7.7,7.4,11.9,10.8l-14.9,14.9l12.8,12.8l27.7-27.6
		C201.4,318.7,193.3,310.6,186,301.8L186,301.8z"/>
	<circle class="st0" cx="324.3" cy="187.7" r="110.9"/>
	<path class="st1" d="M324.3,76.8c-4.3,0-8.6,0.3-12.8,0.8c60.8,7,104.4,62,97.4,122.9c-5.9,51.1-46.3,91.5-97.4,97.4
		c60.8,7.3,116.1-36.1,123.4-96.9c7.3-60.8-36.1-116.1-96.9-123.4C333.4,77,328.8,76.8,324.3,76.8L324.3,76.8z"/>
</g>
<g id="Colour_copy">
	<path class="st5" d="M39.2,474.4c-6.7-6.6-6.8-17.3-0.2-24c0.1-0.1,0.1-0.1,0.2-0.2l120.7-120.7c6.6-6.7,17.3-6.8,24-0.2
		c0.1,0.1,0.1,0.1,0.2,0.2l14.3-14.4l2.9-2.9c5.8-5.8,6.6-15,1.9-21.7c-56.7-81-37-192.7,44-249.5c26.6-18.6,57.7-29.6,90-31.9
		c-4.3-0.3-8.5-0.6-12.8-0.6c-99,0-179.2,80.3-179.2,179.3c0,41.6,14.5,81.9,41,114l-13.3,13.4l-14.3,14.4c-6.6-6.7-17.3-6.8-24-0.2
		c-0.1,0.1-0.1,0.1-0.2,0.2L13.6,450.2c-6.7,6.6-6.8,17.3-0.2,24c0.1,0.1,0.1,0.1,0.2,0.2l24.1,24.1c6.7,6.7,17.5,6.7,24.1,0
		c0,0,0,0,0,0l0.7-0.7L39.2,474.4z"/>
</g>
<path class="st5" d="M7.5,444.1l48.3-48.3l12.1,12.1l-48.3,48.3L7.5,444.1z"/>
<g>
	<g>
		<path class="st6" d="M324.3,0C220.7-0.1,136.6,83.9,136.5,187.5c0,41,13.4,80.9,38.2,113.6l-17.5,17.6c-9.8-4.5-21.2-2.6-29,4.8
			l-72.4,72.4c-3.3,3.3-3.3,8.7,0,12.1c3.3,3.3,8.7,3.3,12.1,0l72.4-72.4c3.4-3.2,8.7-3.2,12.1,0l24.1,24.1h0
			c3.3,3.3,3.3,8.7,0,12.1L55.8,492.4c-3.3,3.3-8.7,3.3-12.1,0c0,0,0,0,0,0l-24.1-24.1c-3.3-3.3-3.3-8.7,0-12.1
			c3.3-3.3,3.3-8.7,0-12.1c-3.3-3.3-8.7-3.3-12.1,0l0,0c-10,10-10,26.2,0,36.2c0,0,0,0,0,0l24.1,24.1c10,10,26.2,10,36.2,0
			c0,0,0,0,0,0l120.7-120.7c7.6-7.7,9.6-19.3,4.9-29.1l17.5-17.5c82.6,62.7,200.4,46.5,263-36s46.5-200.4-36-263
			C405.2,13.4,365.3,0,324.3,0L324.3,0z M182.5,341.6l-12-12l15.2-15.3c3.8,4.2,7.9,8.2,12.1,12.1L182.5,341.6z M324.3,358.4
			c-94.3,0-170.7-76.4-170.7-170.7S230,17.1,324.3,17.1s170.7,76.4,170.7,170.7C494.8,281.9,418.5,358.3,324.3,358.4z"/>
		<path class="st6" d="M324.3,34.1c-84.8,0-153.6,68.8-153.6,153.6s68.8,153.6,153.6,153.6s153.6-68.8,153.6-153.6
			C477.8,102.9,409.1,34.2,324.3,34.1z M324.3,324.3c-75.4,0-136.5-61.1-136.5-136.5S248.9,51.2,324.3,51.2s136.5,61.1,136.5,136.5
			C460.7,263.1,399.6,324.2,324.3,324.3z"/>
		<path class="st6" d="M31.6,420c-3.3,3.3-3.3,8.7,0,12.1s8.7,3.3,12.1,0c3.3-3.3,3.3-8.7,0-12.1c0,0,0,0,0,0
			C40.4,416.7,35,416.7,31.6,420z"/>
		<path class="st6" d="M324.3,162.1c4.7,0,8.5-3.8,8.5-8.5v-6.2c5.3,3,8.5,8.6,8.5,14.7c0,4.7,3.8,8.5,8.5,8.5
			c4.7,0,8.5-3.8,8.5-8.5c-0.1-15.5-10.6-29-25.6-32.9V128c0-4.7-3.8-8.5-8.5-8.5s-8.5,3.8-8.5,8.5v1.2
			c-18.2,4.7-29.2,23.3-24.5,41.5c3.9,15.1,17.5,25.6,33,25.6c9.4,0,17,7.6,17.1,17c0,6.1-3.2,11.7-8.5,14.8v-6.2
			c0-4.7-3.8-8.5-8.5-8.5s-8.5,3.8-8.5,8.5v6.2c-5.3-3-8.5-8.6-8.5-14.7c0-4.7-3.8-8.5-8.5-8.5s-8.5,3.8-8.5,8.5
			c0.1,15.5,10.6,29,25.6,32.9v1.2c0,4.7,3.8,8.5,8.5,8.5s8.5-3.8,8.5-8.5v-1.2c18.2-4.7,29.2-23.3,24.5-41.5
			c-3.9-15.1-17.5-25.6-33-25.6c-9.4,0-17-7.6-17.1-17c0-6.1,3.2-11.7,8.5-14.8v6.2C315.7,158.3,319.6,162.1,324.3,162.1z"/>
		<path class="st6" d="M324.3,68.3c-66,0-119.5,53.5-119.5,119.5s53.5,119.5,119.5,119.5s119.5-53.5,119.5-119.5
			C443.6,121.8,390.2,68.4,324.3,68.3z M405.6,234.7c-2.2,3.9-1,8.9,2.8,11.4c-3.6,5.2-7.6,10-12.1,14.4c-3.1-3.4-8.5-3.7-11.9-0.5
			c-3.2,2.9-3.7,7.9-1,11.4c-5.1,3.6-10.6,6.8-16.3,9.4c-1.8-4.3-6.7-6.4-11-4.7c-4.1,1.7-6.2,6.2-4.9,10.4
			c-6,1.7-12.2,2.8-18.5,3.3c-0.2-4.7-4.2-8.3-8.8-8.1c-4.4,0.2-7.9,3.7-8.1,8.1c-6.2-0.5-12.4-1.6-18.5-3.3c1.4-4.4-1-9.2-5.4-10.6
			c-4.2-1.4-8.8,0.8-10.4,4.9c-5.7-2.6-11.1-5.8-16.3-9.4c2.8-3.7,2.1-9-1.6-11.8c-3.5-2.7-8.4-2.2-11.4,1
			c-4.4-4.4-8.5-9.2-12.1-14.4c3.9-2.5,5-7.8,2.5-11.7c-2.3-3.6-7.1-4.9-10.9-2.9c-2.7-5.7-4.8-11.6-6.4-17.6
			c4.6-1,7.4-5.5,6.4-10.1c-1-4.3-5-7.1-9.4-6.5c-0.3-3.1-0.5-6.2-0.5-9.4c0-3.2,0.2-6.3,0.5-9.3c0.4,0.1,0.7,0.1,1.1,0.1
			c4.7,0,8.5-3.7,8.5-8.4c0-4-2.7-7.5-6.6-8.3c1.6-6.1,3.7-12,6.4-17.6c4.2,2.1,9.3,0.4,11.4-3.8c1.9-3.9,0.7-8.6-3-10.9
			c3.6-5.2,7.6-10,12.1-14.4c3.1,3.4,8.5,3.7,11.9,0.5c3.2-2.9,3.7-7.9,1-11.4c5.1-3.6,10.5-6.8,16.2-9.4c1.8,4.3,6.8,6.3,11.1,4.4
			c4-1.7,6-6.1,4.8-10.2c6-1.7,12.2-2.8,18.5-3.3c0.2,4.7,4.2,8.3,8.8,8.1c4.4-0.2,7.9-3.7,8.1-8.1c6.2,0.5,12.4,1.6,18.5,3.3
			c-1.4,4.5,1.2,9.2,5.6,10.6c4.1,1.3,8.5-0.8,10.2-4.8c5.7,2.6,11.1,5.8,16.2,9.4c-2.8,3.7-2.1,9,1.6,11.8c3.5,2.7,8.4,2.2,11.4-1
			c4.4,4.4,8.5,9.2,12.1,14.4c-4,2.4-5.2,7.7-2.8,11.6c2.3,3.8,7.2,5.1,11.2,3c2.7,5.7,4.8,11.6,6.4,17.6c-4.6,1-7.4,5.6-6.4,10.1
			c0.9,3.9,4.3,6.7,8.3,6.6c0.4,0,0.7,0,1.1-0.1c0.3,3.1,0.5,6.2,0.5,9.3c0,3.2-0.2,6.3-0.5,9.4c-4.6-0.6-8.9,2.6-9.5,7.2
			c-0.6,4.4,2.2,8.5,6.5,9.4c-1.6,6.1-3.7,12-6.4,17.6C412.7,229.4,407.8,230.8,405.6,234.7L405.6,234.7z"/>
	</g>
</g>
</svg>
