<svg xmlns="http://www.w3.org/2000/svg" width="317.47px" height="76.49px" viewBox="0 0 317.47 76.49"><path d="M84.67,43.19H94.6q-1.55,7-9.18,11.68A17.5,17.5,0,0,1,76.89,57q-8.2,0-14.24-6.88a17.15,17.15,0,0,1-3.88-10.85q0-9.33,8.33-14.93a18.61,18.61,0,0,1,10-2.81q7.26,0,13.27,5.62a18,18,0,0,1,4.41,8.77H85a9.32,9.32,0,0,0-4.46-5,8.52,8.52,0,0,0-3.78-.87q-5,0-7.55,4.94a9,9,0,0,0-.88,4.17v.1a9,9,0,0,0,4.07,7.65,7.74,7.74,0,0,0,4.17,1.26h.78Q82.23,48.18,84.67,43.19Z" style="fill:#77787b"/><path d="M117.22,57a17.73,17.73,0,0,1-12.85-5.18,16.83,16.83,0,0,1-5.32-12.5,16.83,16.83,0,0,1,5.32-12.51,18.54,18.54,0,0,1,25.71,0,16.86,16.86,0,0,1,5.31,12.51,16.85,16.85,0,0,1-5.31,12.5A17.73,17.73,0,0,1,117.22,57Zm-8.57-17.83v.1a9,9,0,0,0,4.07,7.65,7.74,7.74,0,0,0,4.16,1.26h.78q5.31,0,7.75-6a12.14,12.14,0,0,0,.39-2.81v-.49q0-5.12-4.94-8a8.58,8.58,0,0,0-3.78-.87q-5,0-7.56,4.94A9.18,9.18,0,0,0,108.65,39.17Z" style="fill:#77787b"/><path d="M150.58,39.56v17h-9.7V22.6h9.7l9.69,17v-17H170V56.52h-9.69Z" style="fill:#77787b"/><path d="M185.07,22.6,189.82,42l6.59-19.38h7.75l6.3,19,4.46-19H226L214.82,56.52h-9.11L200,37.33l-5.81,19.19h-8.92L174.12,22.6Z" style="fill:#77787b"/><path d="M254.42,22.6v8H239.5v5.14h13.66v7.27H239.5v5.33h14.92v8.14H230.2V22.6Z" style="fill:#77787b"/><path d="M270.7,46.73H270v9.79h-9.4V22.6h15.65q8.31,0,11.24,4.84a10.79,10.79,0,0,1,2.23,6.89v.58q0,8.24-8.75,11.09,7,9,9.43,10.52H279Q276.64,55,270.7,46.73ZM270,30.55v8.14h4.41q4.56,0,5.23-1.07a4.75,4.75,0,0,0,.78-2.62q0-4.45-5.72-4.45Z" style="fill:#77787b"/><path d="M317.47,22.6v8H310.2V56.52h-9.69V30.64h-7.27v-8Z" style="fill:#77787b"/><path d="M101.37,75.92A5.14,5.14,0,1,1,105,67.16l-1,1A3.47,3.47,0,0,0,101.38,67a3.77,3.77,0,1,0,3.53,4.46h-3.54V70.11h5.08a3.74,3.74,0,0,1,.06.68A5.14,5.14,0,0,1,101.37,75.92Z" style="fill:#77787b"/><path d="M116,75.66h-5.66V65.91H116v1.37h-4.1v2.83h3.72v1.37H111.9V74.3H116Z" style="fill:#77787b"/><path d="M123.32,75.92a3.72,3.72,0,0,1-3.62-2.45l1.31-.55a2.32,2.32,0,0,0,2.25,1.65,1.79,1.79,0,0,0,2-1.65A1.4,1.4,0,0,0,124,71.58l-1.73-.39A2.73,2.73,0,0,1,120,68.54a3,3,0,0,1,3.24-2.89,3.37,3.37,0,0,1,3.4,2.5l-1.26.49A2.19,2.19,0,0,0,123.22,67a1.56,1.56,0,0,0-1.71,1.49,1.32,1.32,0,0,0,1.07,1.3l2,.44a2.62,2.62,0,0,1,2.2,2.6A3.18,3.18,0,0,1,123.32,75.92Z" style="fill:#77787b"/><path d="M137.23,67.28h-2.88v8.38h-1.56V67.28h-2.87V65.91h7.31Z" style="fill:#77787b"/><path d="M148.43,75.66h-1.69l-1-2.52h-4l-1,2.52h-1.68L143,65.91h1.6Zm-2.52-12.48a1.51,1.51,0,0,1-1.51,1.59c-1.13,0-1.14-.7-1.66-.7-.21,0-.41.17-.41.57h-1.1a1.51,1.51,0,0,1,1.51-1.6c1.13,0,1.14.7,1.66.7.21,0,.4-.15.4-.56Zm-.66,8.61L143.76,68l-1.48,3.82Z" style="fill:#77787b"/><path d="M156.49,75.92a5.14,5.14,0,1,1,5.14-5.13A5.13,5.13,0,0,1,156.49,75.92Zm0-8.9a3.78,3.78,0,1,0,3.58,3.77A3.68,3.68,0,0,0,156.5,67Z" style="fill:#77787b"/><path d="M176,75.66h-5.65V65.91H176v1.37H171.9v2.83h3.72v1.37H171.9V74.3H176Z" style="fill:#77787b"/><path d="M189.19,75.66h-1.56V68.81l-2.42,3.77h-1.28l-2.41-3.77v6.85H180V65.91h1.56l3,4.76,3.08-4.76h1.54Z" style="fill:#77787b"/><path d="M197,71.48h-2.11v4.18h-1.56V65.91H197a2.79,2.79,0,0,1,0,5.57Zm-.07-4.2h-2v2.83h2a1.42,1.42,0,0,0,0-2.83Z" style="fill:#77787b"/><path d="M210.79,75.66h-2l-3.7-4.12v4.12h-1.56V65.91h3.67a2.79,2.79,0,0,1,0,5.57H207Zm-3.63-8.38h-2v2.83h2a1.42,1.42,0,0,0,0-2.83Z" style="fill:#77787b"/><path d="M219.94,75.66h-5.65V65.91h5.65v1.37h-4.09v2.83h3.72v1.37h-3.72V74.3h4.09Z" style="fill:#77787b"/><path d="M227.26,75.92a3.71,3.71,0,0,1-3.61-2.45l1.31-.55a2.32,2.32,0,0,0,2.25,1.65,1.78,1.78,0,0,0,2-1.65,1.4,1.4,0,0,0-1.26-1.34l-1.73-.39A2.73,2.73,0,0,1,224,68.54a3,3,0,0,1,3.24-2.89,3.38,3.38,0,0,1,3.4,2.5l-1.26.49A2.2,2.2,0,0,0,227.17,67a1.56,1.56,0,0,0-1.71,1.49,1.32,1.32,0,0,0,1.06,1.3l2,.44a2.61,2.61,0,0,1,2.19,2.6A3.17,3.17,0,0,1,227.26,75.92Z" style="fill:#77787b"/><path d="M242.93,75.66h-1.69l-1-2.52h-4l-1,2.52h-1.67l3.86-9.75h1.6Zm-3.19-3.87L238.26,68l-1.48,3.82Z" style="fill:#77787b"/><path d="M253.34,75.66h-2l-3.7-4.12v4.12h-1.56V65.91h3.67a2.79,2.79,0,0,1,0,5.57h-.2Zm-3.63-8.38h-2v2.83h2a1.42,1.42,0,0,0,0-2.83Z" style="fill:#77787b"/><path d="M258.4,75.66h-1.56V65.91h1.56Z" style="fill:#77787b"/><path d="M270.9,75.66h-1.69l-1-2.52h-4l-1,2.52h-1.68l3.86-9.75H267Zm-3.18-3.87L266.24,68l-1.49,3.82Z" style="fill:#77787b"/><path d="M280,75.66h-5.91V65.91h1.56V74.3H280Z" style="fill:#77787b"/><rect x="25.2" y="5.44" width="26.28" height="26.28" transform="translate(24.37 -21.67) rotate(45)" style="fill:#244f9e"/><rect x="5.44" y="25.11" width="26.28" height="26.28" transform="translate(32.49 -1.94) rotate(45)" style="fill:#77787b"/><rect x="25.2" y="44.77" width="26.28" height="26.28" transform="translate(52.18 -10.15) rotate(45)" style="fill:#30aae2"/></svg>