<svg xmlns="http://www.w3.org/2000/svg" width="317.47px" height="76.49px" viewBox="0 0 317.47 76.49"><path d="M108.6,76.16h-2L102.93,72v4.12h-1.56V66.41H105A2.78,2.78,0,0,1,105,72h-.2ZM105,67.77h-2v2.84h2a1.43,1.43,0,0,0,0-2.84Z" style="fill:#77787b"/><path d="M117.75,76.16H112.1V66.41h5.65v1.36h-4.09v2.84h3.71V72h-3.71v2.82h4.09Z" style="fill:#77787b"/><path d="M130.23,66.41l-3.91,9.75h-1.6l-3.91-9.75h1.67l3,7.72,3-7.72Z" style="fill:#77787b"/><path d="M135,76.16h-1.56V66.41H135Z" style="fill:#77787b"/><path d="M142.42,76.42A3.73,3.73,0,0,1,138.81,74l1.31-.55a2.32,2.32,0,0,0,2.25,1.66,1.79,1.79,0,0,0,2-1.66,1.39,1.39,0,0,0-1.26-1.33l-1.73-.39A2.74,2.74,0,0,1,139.11,69a3,3,0,0,1,3.24-2.88,3.36,3.36,0,0,1,3.4,2.49l-1.26.5a2.2,2.2,0,0,0-2.16-1.64A1.56,1.56,0,0,0,140.62,69a1.3,1.3,0,0,0,1.06,1.3l2,.45a2.6,2.6,0,0,1,2.19,2.6A3.17,3.17,0,0,1,142.42,76.42Z" style="fill:#77787b"/><path d="M158.09,76.16H156.4l-1-2.52h-4l-1,2.52h-1.68l3.86-9.75h1.6Zm-2.52-12.48a1.5,1.5,0,0,1-1.51,1.58c-1.13,0-1.14-.7-1.66-.7-.21,0-.41.17-.41.57h-1.1a1.51,1.51,0,0,1,1.51-1.6c1.13,0,1.14.71,1.66.71.21,0,.4-.16.4-.56Zm-.66,8.6-1.49-3.82-1.48,3.82Z" style="fill:#77787b"/><path d="M166.15,76.42a5.14,5.14,0,1,1,5.14-5.14A5.14,5.14,0,0,1,166.15,76.42Zm0-8.91a3.78,3.78,0,1,0,3.58,3.77A3.68,3.68,0,0,0,166.16,67.51Z" style="fill:#77787b"/><path d="M186.65,67.77h-2.87v8.39h-1.56V67.77h-2.88V66.41h7.31Z" style="fill:#77787b"/><path d="M197.33,76.16h-2L191.66,72v4.12H190.1V66.41h3.66a2.78,2.78,0,0,1,0,5.56h-.19Zm-3.63-8.39h-2v2.84h2a1.43,1.43,0,0,0,0-2.84Z" style="fill:#77787b"/><path d="M202.38,76.16h-1.56V66.41h1.56Z" style="fill:#77787b"/><path d="M210.42,76.16h-3.94V66.41h3.69a2.73,2.73,0,0,1,2.75,2.71,2.5,2.5,0,0,1-1.1,2,2.55,2.55,0,0,1,1.35,2.27A2.73,2.73,0,0,1,210.42,76.16ZM210,67.77h-2v2.84h2a1.42,1.42,0,0,0,0-2.84Zm.26,4.2H208v2.82h2.26a1.41,1.41,0,0,0,0-2.82Z" style="fill:#77787b"/><path d="M225.12,72.58a4,4,0,0,1-8.06,0V66.41h1.56v6.17a2.47,2.47,0,1,0,4.94,0V66.41h1.56Z" style="fill:#77787b"/><path d="M235.87,67.77H233v8.39h-1.56V67.77h-2.88V66.41h7.31Z" style="fill:#77787b"/><path d="M247.08,76.16h-1.7l-1-2.52h-4l-1,2.52h-1.68l3.87-9.75h1.59Zm-2.72-11.7-3.62,1.23-.44-1.15,3.62-1.24Zm-.47,7.82-1.48-3.82-1.48,3.82Z" style="fill:#77787b"/><path d="M257.49,76.16h-2L251.82,72v4.12h-1.56V66.41h3.67a2.78,2.78,0,0,1,0,5.56h-.2Zm-3.63-8.39h-2v2.84h2a1.43,1.43,0,0,0,0-2.84Z" style="fill:#77787b"/><path d="M262.54,76.16H261V66.41h1.56Z" style="fill:#77787b"/><path d="M275.05,76.16h-1.69l-1-2.52h-4l-1,2.52h-1.68l3.86-9.75h1.6Zm-3.18-3.88-1.49-3.82-1.48,3.82Z" style="fill:#77787b"/><path d="M84.67,43.19H94.6q-1.55,7-9.18,11.68A17.5,17.5,0,0,1,76.89,57q-8.2,0-14.24-6.88a17.15,17.15,0,0,1-3.88-10.85q0-9.33,8.33-14.93a18.61,18.61,0,0,1,10-2.81q7.26,0,13.27,5.62a18,18,0,0,1,4.41,8.77H85a9.32,9.32,0,0,0-4.46-5,8.52,8.52,0,0,0-3.78-.87q-5,0-7.55,4.94a9,9,0,0,0-.88,4.17v.1a9,9,0,0,0,4.07,7.65,7.74,7.74,0,0,0,4.17,1.26h.78Q82.23,48.18,84.67,43.19Z" style="fill:#77787b"/><path d="M117.22,57a17.73,17.73,0,0,1-12.85-5.18,16.83,16.83,0,0,1-5.32-12.5,16.83,16.83,0,0,1,5.32-12.51,18.54,18.54,0,0,1,25.71,0,16.86,16.86,0,0,1,5.31,12.51,16.85,16.85,0,0,1-5.31,12.5A17.73,17.73,0,0,1,117.22,57Zm-8.57-17.83v.1a9,9,0,0,0,4.07,7.65,7.74,7.74,0,0,0,4.16,1.26h.78q5.31,0,7.75-6a12.14,12.14,0,0,0,.39-2.81v-.49q0-5.12-4.94-8a8.58,8.58,0,0,0-3.78-.87q-5,0-7.56,4.94A9.18,9.18,0,0,0,108.65,39.17Z" style="fill:#77787b"/><path d="M150.58,39.56v17h-9.7V22.6h9.7l9.69,17v-17H170V56.52h-9.69Z" style="fill:#77787b"/><path d="M185.07,22.6,189.82,42l6.59-19.38h7.75l6.3,19,4.46-19H226L214.82,56.52h-9.11L200,37.33l-5.81,19.19h-8.92L174.12,22.6Z" style="fill:#77787b"/><path d="M254.42,22.6v8H239.5v5.14h13.66v7.27H239.5v5.33h14.92v8.14H230.2V22.6Z" style="fill:#77787b"/><path d="M270.7,46.73H270v9.79h-9.4V22.6h15.65q8.31,0,11.24,4.84a10.79,10.79,0,0,1,2.23,6.89v.58q0,8.24-8.75,11.09,7,9,9.43,10.52H279Q276.64,55,270.7,46.73ZM270,30.55v8.14h4.41q4.56,0,5.23-1.07a4.75,4.75,0,0,0,.78-2.62q0-4.45-5.72-4.45Z" style="fill:#77787b"/><path d="M317.47,22.6v8H310.2V56.52h-9.69V30.64h-7.27v-8Z" style="fill:#77787b"/><rect x="25.2" y="5.44" width="26.28" height="26.28" transform="translate(24.37 -21.67) rotate(45)" style="fill:#244f9e"/><rect x="5.44" y="25.11" width="26.28" height="26.28" transform="translate(32.49 -1.94) rotate(45)" style="fill:#77787b"/><rect x="25.2" y="44.77" width="26.28" height="26.28" transform="translate(52.18 -10.15) rotate(45)" style="fill:#30aae2"/></svg>