<?xml version="1.0" encoding="utf-8"?>
<!-- Generator: Adobe Illustrator 24.2.1, SVG Export Plug-In . SVG Version: 6.00 Build 0)  -->
<svg version="1.1" id="Camada_1" xmlns="http://www.w3.org/2000/svg" xmlns:xlink="http://www.w3.org/1999/xlink" x="0px" y="0px"
	 viewBox="0 0 512 512" style="enable-background:new 0 0 512 512;" xml:space="preserve">
<style type="text/css">
	.st0{fill:#E8EDFC;}
	.st1{fill:#CAD9FC;}
	.st2{fill:#A4C2F7;}
	.st3{fill:#FFFFFF;}
	.st4{fill:#1C335D;}
</style>
<g id="Page-1">
	<g id="_x30_59---Money-Bag" transform="translate(0 -1)">
		<path id="Shape" class="st0" d="M394.2,453.3H230.4V350.9c0-14.2-24.8-25.6-55.5-25.6c-7.2,0-14.3,0.6-21.3,2v-92.9
			c27-62.9,73-108.7,113.9-128.9c7.3,4.4,15.6,6.6,24.1,6.6h47.8c8.6,0.1,17-2.3,24.3-6.7c18.6,9.2,102.5,57.3,132.8,185.9
			C530.7,436.2,428.3,453.3,394.2,453.3z"/>
		<path id="Shape_1_" class="st1" d="M496.6,291.1c-30.3-128.7-114.2-176.7-132.8-185.9c-4.7,2.8-9.8,4.8-15.1,5.8
			c29.3,17.5,96,68.4,122.3,180.2c34.1,145.1-68.3,162.1-102.4,162.1h25.6C428.3,453.3,530.7,436.2,496.6,291.1L496.6,291.1z"/>
		<path id="Shape_2_" class="st0" d="M401.1,19.5c0.1,18.8-3.7,59.7-33.7,83.2c-1.1,0.9-2.3,1.7-3.6,2.5c-7.3,4.5-15.7,6.8-24.3,6.7
			h-47.8c-8.5,0.1-16.9-2.2-24.1-6.6c-1.3-0.9-2.6-1.7-3.8-2.6c-30-23.5-33.7-64.4-33.7-83.2c0-2.8,1.4-5.5,3.8-7.1
			c2.4-1.6,5.4-1.9,8-0.8c10.9,4.6,14.6,14.9,31.1,14.9c21.2,0,21.2-17.1,42.5-17.1s21.3,17.1,42.7,17.1c16.6,0,20.2-10.4,31.1-14.9
			c2.6-1.1,5.6-0.8,8,0.8C399.6,14,401.1,16.7,401.1,19.5L401.1,19.5z"/>
		<path id="Shape_3_" class="st1" d="M389.3,11.7c-5,2.6-9.6,5.7-13.8,9.4c-0.1,19.4-4.4,58.8-33.7,81.6c-1.1,0.9-2.3,1.7-3.6,2.5
			c-7.3,4.5-15.7,6.8-24.3,6.7h25.6c8.6,0.1,17-2.3,24.3-6.7c1.3-0.7,2.5-1.6,3.6-2.5c30-23.5,33.8-64.4,33.7-83.2
			c0-2.8-1.4-5.5-3.8-7.1C394.9,10.9,391.9,10.6,389.3,11.7L389.3,11.7z"/>
		<ellipse id="Oval" class="st0" cx="149.3" cy="69.3" rx="55.5" ry="25.6"/>
		<path id="Shape_4_" class="st2" d="M204.8,69.3v85.2c-21.5,23.5-38.8,50.5-51.2,79.9v-45.6c0-14.2-24.8-25.6-55.5-25.6
			c-1.5,0-2.8,0-4.3,0.1v-94c0,14.2,24.8,25.6,55.5,25.6S204.8,83.4,204.8,69.3z"/>
		<path id="Shape_5_" class="st0" d="M153.6,188.7c0,14.2-24.8,25.6-55.5,25.6s-55.5-11.4-55.5-25.6c0-13.5,22.5-24.5,51.2-25.5
			c1.5-0.1,2.8-0.1,4.3-0.1C128.8,163.1,153.6,174.6,153.6,188.7z"/>
		<path id="Shape_6_" class="st2" d="M153.6,188.7v138.5c-20.1,3.8-34.1,13-34.1,23.6v85.3c0-14.2-24.8-25.6-55.5-25.6
			c-7.2,0-14.3,0.6-21.3,2V188.7c0,14.2,24.8,25.6,55.5,25.6S153.6,202.9,153.6,188.7z"/>
		<path id="Shape_7_" class="st0" d="M119.5,436.2c0,14.2-24.8,25.6-55.5,25.6S8.5,450.4,8.5,436.2c0-10.7,14.1-19.8,34.1-23.6
			c7-1.3,14.2-2,21.3-2C94.6,410.6,119.5,422,119.5,436.2z"/>
		<path id="Shape_8_" class="st2" d="M119.5,436.2v42.7c0,14.2-24.8,25.6-55.5,25.6S8.5,493,8.5,478.9v-42.7
			c0,14.2,24.8,25.6,55.5,25.6S119.5,450.4,119.5,436.2z"/>
		<path id="Shape_9_" class="st0" d="M230.4,350.9c0,14.2-24.8,25.6-55.5,25.6s-55.5-11.4-55.5-25.6c0-10.7,14.1-19.8,34.1-23.6
			c7-1.3,14.2-2,21.3-2C205.6,325.3,230.4,336.7,230.4,350.9z"/>
		<path id="Shape_10_" class="st2" d="M230.4,350.9v110.9c0,14.2-24.8,25.6-55.5,25.6s-55.5-11.4-55.5-25.6V350.9
			c0,14.2,24.8,25.6,55.5,25.6S230.4,365,230.4,350.9z"/>
		<path id="Shape_11_" class="st3" d="M34.1,478.9v-42.7c0-10.7,14.1-19.8,34.1-23.6V188.7c0-13.5,22.5-24.5,51.2-25.5v-94
			c0-12.1,18.2-22.2,42.7-24.9c-4.3-0.5-8.5-0.7-12.8-0.7c-30.6,0-55.5,11.4-55.5,25.6v94c-28.7,1-51.2,12-51.2,25.5v223.8
			c-20.1,3.8-34.1,13-34.1,23.6v42.7c0,14.2,24.8,25.6,55.5,25.6c4.3,0,8.5-0.2,12.8-0.7C52.3,501.1,34.1,491,34.1,478.9z"/>
		<path id="Rectangle-path" class="st3" d="M34.1,344.3h17.1v68.3H34.1V344.3z"/>
		<g>
			<path id="Shape_12_" class="st4" d="M462,399.1c10.1-13.9,15.6-30.6,15.7-47.8c0.1-2.3-0.7-4.5-2.2-6.1s-3.6-2.7-5.9-2.8
				c-4.7-0.2-8.7,3.4-8.9,8.1c0.1,13.6-4.1,26.9-12,38.1c-16.6,21-48.2,22.1-54.4,22.1c-4.7,0-8.5,3.8-8.5,8.5s3.8,8.5,8.5,8.5
				C401.7,427.7,440.4,426.3,462,399.1L462,399.1z"/>
			<path id="Shape_13_" class="st4" d="M290.1,291.1c0-4.7-3.8-8.5-8.5-8.5s-8.5,3.8-8.5,8.5c0,18.9,15.3,34.1,34.1,34.1v8.5
				c0,4.7,3.8,8.5,8.5,8.5c4.7,0,8.5-3.8,8.5-8.5v-8.5c18.9,0,34.1-15.3,34.1-34.1c0-18.9-15.3-34.1-34.1-34.1v-34.1
				c9.4,0,17.1,7.6,17.1,17.1c0,4.7,3.8,8.5,8.5,8.5c4.7,0,8.5-3.8,8.5-8.5c0-18.9-15.3-34.1-34.1-34.1v-8.5c0-4.7-3.8-8.5-8.5-8.5
				c-4.7,0-8.5,3.8-8.5,8.5v8.5c-18.9,0-34.1,15.3-34.1,34.1s15.3,34.1,34.1,34.1v34.1C297.8,308.2,290.1,300.6,290.1,291.1z
				 M290.1,239.9c0-9.4,7.6-17.1,17.1-17.1V257C297.8,257,290.1,249.4,290.1,239.9z M324.3,274.1c9.4,0,17.1,7.6,17.1,17.1
				c0,9.4-7.6,17.1-17.1,17.1V274.1z"/>
			<path id="Shape_14_" class="st4" d="M504.9,289.2c-21-89.4-67.8-141.1-101.5-168.2c42.3,3.2,56,20.8,56.4,21.3
				c2.7,3.8,7.9,4.8,11.8,2.2c3.9-2.6,4.9-7.8,2.4-11.7c-0.6-0.9-12.5-17.9-46.9-25.6c8.8-7.2,14-18,14.3-29.4
				c-1.1-18.9-14.3-34.9-32.6-39.7c0.8-6.2,1.1-12.4,1.1-18.6c0-5.7-2.9-11.1-7.7-14.2c-4.8-3.2-10.8-3.7-16.1-1.5
				c-4.3,2-8.3,4.5-11.9,7.6c-4.2,4.3-10,6.7-16,6.7c-6,0-11.7-2.4-15.9-6.7c-15-13.9-38.2-13.9-53.3,0c-4.2,4.3-10,6.7-16,6.7
				c-6,0-11.7-2.4-15.9-6.7c-3.6-3.1-7.5-5.7-11.8-7.6c-5.3-2.2-11.3-1.7-16,1.5c-4.8,3.2-7.6,8.5-7.6,14.2
				c0,21.2,4.2,59.1,30.8,84.5c-14,8.5-27,18.4-38.9,29.6V69.3c0-19.5-27.5-34.1-64-34.1s-64,14.7-64,34.1v86
				c-29.9,3-51.2,16.4-51.2,33.5v155.6c0,4.7,3.8,8.5,8.5,8.5s8.5-3.8,8.5-8.5V212.4c14.5,7.4,30.7,11,46.9,10.5
				c16.3,0.5,32.4-3.1,46.9-10.5v108.1c-20.6,5.5-34.1,16.8-34.1,30.4v61.7c-14.5-7.4-30.7-11-46.9-10.5c-36.5,0-64,14.7-64,34.1
				v42.7C0,498.3,27.5,513,64,513c32.6,0,58-11.8,63-28.2c14.7,7.8,31.2,11.6,47.9,11.1c36.5,0,64-14.7,64-34.1V350.9
				c0-19.5-27.5-34.1-64-34.1c-4.3,0-8.5,0.2-12.8,0.6V188.7c0-18.7-25.4-32.9-59.7-34V92.9c14.5,7.4,30.7,11,46.9,10.5
				c16.3,0.5,32.4-3.1,46.9-10.5v58.2c-5.6,6.3-11.3,13.1-16.8,20.7c-2.6,3.8-1.7,8.9,2,11.6c3.7,2.7,8.9,2,11.7-1.6
				c5.5-7.4,11.4-14.5,17.6-21.3c0.1-0.1,0.1-0.2,0.2-0.2c16.3-18.1,35.4-33.4,56.6-45.4c4.2,2,8.6,3.5,13.2,4.4l-22,20.5
				c-3.4,3.2-3.6,8.6-0.4,12.1c3.2,3.4,8.6,3.6,12.1,0.4l34.1-31.8h2.7v25.6c0,4.7,3.8,8.5,8.5,8.5s8.5-3.8,8.5-8.5v-25.6h2.7
				l34.1,31.8c2.2,2.1,5.4,2.8,8.3,1.9c2.9-0.9,5.1-3.3,5.8-6.2c0.7-3-0.3-6.1-2.5-8.2l-22.1-20.6c4.5-0.9,8.9-2.4,13.1-4.4
				c22.6,12.2,96.7,60.4,124.5,178.3c12.1,51.3,7.7,90.5-12.9,116.6c-26.4,33.3-72.3,35-81.2,35H273.1c-4.7,0-8.5,3.8-8.5,8.5
				s3.8,8.5,8.5,8.5h121.1c14.5,0,64-3,94.5-41.5C512.8,389.9,518.2,345.8,504.9,289.2L504.9,289.2z M110.9,461.8v17.1
				c0,6.8-18.7,17.1-46.9,17.1s-46.9-10.2-46.9-17.1v-19c14.5,7.4,30.7,11,46.9,10.5c16.3,0.5,32.4-3.1,46.9-10.5V461.8z M64,453.3
				c-28.2,0-46.9-10.2-46.9-17.1s18.7-17.1,46.9-17.1s46.9,10.2,46.9,17.1S92.2,453.3,64,453.3z M221.9,461.8
				c0,6.8-18.7,17.1-46.9,17.1S128,468.6,128,461.8v-87.3c14.5,7.4,30.7,11,46.9,10.5c16.3,0.5,32.4-3.1,46.9-10.5V461.8z
				 M174.9,333.8c28.2,0,46.9,10.2,46.9,17.1s-18.7,17.1-46.9,17.1S128,357.7,128,350.9S146.7,333.8,174.9,333.8z M145.1,188.7
				c0,6.8-18.7,17.1-46.9,17.1s-46.9-10.2-46.9-17.1s18.7-17.1,46.9-17.1S145.1,181.9,145.1,188.7z M149.3,86.3
				c-28.2,0-46.9-10.2-46.9-17.1s18.7-17.1,46.9-17.1s46.9,10.2,46.9,17.1S177.6,86.3,149.3,86.3z M362.1,96
				c-6.2,4.6-13.7,7.2-21.4,7.3c7.4-12.7,13.2-26.2,17.4-40.3c0.8-2.9,0-6.1-2.1-8.3c-2.1-2.2-5.3-3-8.2-2.3c-3,0.8-5.3,3-6.1,6
				c-4.7,16-12,31.2-21.5,45h-8.8c-9.5-13.8-16.8-28.9-21.5-45c-1.3-4.5-6-7.2-10.5-5.9c-4.5,1.3-7.2,6-5.9,10.5
				c4.2,14.1,10,27.6,17.4,40.3c-7.9,0-15.6-2.6-21.9-7.4c-27.5-21.5-30.4-60.6-30.4-76.4c2.8,1.4,5.5,3.1,7.8,5.2
				c7.2,6.8,16.7,10.5,26.6,10.4c9.9,0.1,19.4-3.7,26.6-10.4c4.2-4.3,10-6.7,16-6.7s11.7,2.4,16,6.7c7.2,6.8,16.7,10.5,26.6,10.4
				c9.9,0.1,19.4-3.7,26.6-10.4c2.4-2.1,5-3.9,7.8-5.3C392.6,35.3,389.6,74.5,362.1,96L362.1,96z M380.5,102.3
				c12.4-13.2,21-29.5,24.9-47.2c10.3,3,17.7,12,18.7,22.7c0,14-15.1,25.5-34.1,25.6C386.8,103.4,383.6,103,380.5,102.3z"/>
			<path id="Shape_15_" class="st4" d="M51.4,378.4c0-4.7-3.8-8.5-8.5-8.5h-0.1c-4.7,0-8.5,3.9-8.4,8.6c0,4.7,3.9,8.5,8.6,8.5
				S51.4,383.1,51.4,378.4z"/>
		</g>
	</g>
</g>
</svg>
